# xmcd CD database file
#
# Track frame offsets:
#	150
#	12853
#	23290
#	37602
#	45421
#	56470
#	64333
#	73155
#	83251
#	94164
#	104070
#	112821
#	124326
#
# Disc length: 1813 seconds
#
# Revision: 0
# Processed by: cddbd v1.5.2PL0 Copyright (c) Steve Scherf et al.
# Submitted via: CDex 1.70beta2
#
DISCID=9707130d
DTITLE=Aquarius - Aquarius
DYEAR=1976
DGENRE=Brasiliana
TTITLE0=Só Tem Lugar Prá Você
TTITLE1=A Rã
TTITLE2=Carolina
TTITLE3=Falsa Baiana
TTITLE4=Beijo Partido
TTITLE5=Só Louco
TTITLE6=Chega De Saudade
TTITLE7=Tamanco No Samba
TTITLE8=Europanema
TTITLE9=Saudade Da Bahia
TTITLE10=Atire A Primeira Pedra
TTITLE11=Tibidabo
TTITLE12=Pink Bar
EXTD=YEAR: 1976
EXTT0=
EXTT1=
EXTT2=
EXTT3=
EXTT4=
EXTT5=
EXTT6=
EXTT7=
EXTT8=
EXTT9=
EXTT10=
EXTT11=
EXTT12=
PLAYORDER=
